# xmcd CD database file
#
# Track frame offsets:
#	150
#	13899
#	28422
#	47139
#	60363
#	73764
#	82974
#	102552
#	122070
#	133509
#	148923
#	160218
#	190737
#	207969
#	219699
#
# Disc length: 3061 seconds
#
# Revision: 1
# Processed by: cddbd v1.5.1PL0 Copyright (c) Steve Scherf et al.
# Submitted via: CDex 1.51
#
DISCID=e40bf30f
DTITLE=Various Artist - ° Rhythm'n'Blues - CD 1-2 °
DYEAR=2004
DGENRE=Chanson
TTITLE0=Aaron Neville - Tell it like it is
TTITLE1=Ben E. King - Stand by me
TTITLE2=Thelma Houston - Don't leave me this way
TTITLE3=Jerry Butler - I stand accused
TTITLE4=Eddie Floyd - Knock on wood
TTITLE5=Gladys Knight and The Pips - Every beat of my heart
TTITLE6=Heatwave Feat. Jocelyn Brown - Feel like love
TTITLE7=Marvin Gaye - I heard it through the grapevin
TTITLE8=Martha Reeves - Dancing in the street
TTITLE9=Mary Wells - My Guy
TTITLE10=Percy Sledge - The dock of the bay
TTITLE11=Erick Bamy - Don't play that song
TTITLE12=Rare Earth - Get ready
TTITLE13=Sam and Dave - Hold on I'm comin'
TTITLE14=The bar-kays - Soul finger
EXTD=YEAR: 2004
EXTT0=
EXTT1=
EXTT2=
EXTT3=
EXTT4=
EXTT5=
EXTT6=
EXTT7=
EXTT8=
EXTT9=
EXTT10=
EXTT11=
EXTT12=
EXTT13=
EXTT14=
PLAYORDER=
